<svg version="1.2" xmlns="http://www.w3.org/2000/svg" viewBox="0 0 72 72" width="72" height="72"><style>.a{mix-blend-mode:soft-light;fill:#fff}</style><path fill-rule="evenodd" class="a" d="m68.9 55.5c-1.7 0-3.1-1.3-3.1-3 0-1.8 1.4-3.1 3.1-3.1 1.7 0 3.1 1.3 3.1 3.1 0 1.7-1.4 3-3.1 3zm0-16.4c-1.7 0-3.1-1.4-3.1-3.1 0-1.7 1.4-3.1 3.1-3.1 1.7 0 3.1 1.4 3.1 3.1 0 1.7-1.4 3.1-3.1 3.1zm0-16.5c-1.7 0-3.1-1.3-3.1-3.1 0-1.7 1.4-3 3.1-3 1.7 0 3.1 1.3 3.1 3 0 1.8-1.4 3.1-3.1 3.1zm0-16.4c-1.7 0-3.1-1.4-3.1-3.1 0-1.7 1.4-3.1 3.1-3.1 1.7 0 3.1 1.4 3.1 3.1 0 1.7-1.4 3.1-3.1 3.1zm-16.4 65.8c-1.8 0-3.1-1.4-3.1-3.1 0-1.7 1.3-3.1 3.1-3.1 1.7 0 3 1.4 3 3.1 0 1.7-1.3 3.1-3 3.1zm0-16.5c-1.8 0-3.1-1.3-3.1-3 0-1.8 1.3-3.1 3.1-3.1 1.7 0 3 1.3 3 3.1 0 1.7-1.3 3-3 3zm0-16.4c-1.8 0-3.1-1.4-3.1-3.1 0-1.7 1.3-3.1 3.1-3.1 1.7 0 3 1.4 3 3.1 0 1.7-1.3 3.1-3 3.1zm0-16.5c-1.8 0-3.1-1.3-3.1-3.1 0-1.7 1.3-3 3.1-3 1.7 0 3 1.3 3 3 0 1.8-1.3 3.1-3 3.1zm0-16.4c-1.8 0-3.1-1.4-3.1-3.1 0-1.7 1.3-3.1 3.1-3.1 1.7 0 3 1.4 3 3.1 0 1.7-1.3 3.1-3 3.1zm-16.5 65.8c-1.7 0-3.1-1.4-3.1-3.1 0-1.7 1.4-3.1 3.1-3.1 1.7 0 3.1 1.4 3.1 3.1 0 1.7-1.4 3.1-3.1 3.1zm0-16.5c-1.7 0-3.1-1.3-3.1-3 0-1.8 1.4-3.1 3.1-3.1 1.7 0 3.1 1.3 3.1 3.1 0 1.7-1.4 3-3.1 3zm0-16.4c-1.7 0-3.1-1.4-3.1-3.1 0-1.7 1.4-3.1 3.1-3.1 1.7 0 3.1 1.4 3.1 3.1 0 1.7-1.4 3.1-3.1 3.1zm0-16.5c-1.7 0-3.1-1.3-3.1-3.1 0-1.7 1.4-3 3.1-3 1.7 0 3.1 1.3 3.1 3 0 1.8-1.4 3.1-3.1 3.1zm0-16.4c-1.7 0-3.1-1.4-3.1-3.1 0-1.7 1.4-3.1 3.1-3.1 1.7 0 3.1 1.4 3.1 3.1 0 1.7-1.4 3.1-3.1 3.1zm-16.5 65.8c-1.7 0-3-1.4-3-3.1 0-1.7 1.3-3.1 3-3.1 1.8 0 3.1 1.4 3.1 3.1 0 1.7-1.3 3.1-3.1 3.1zm0-16.5c-1.7 0-3-1.3-3-3 0-1.8 1.3-3.1 3-3.1 1.8 0 3.1 1.3 3.1 3.1 0 1.7-1.3 3-3.1 3zm0-16.4c-1.7 0-3-1.4-3-3.1 0-1.7 1.3-3.1 3-3.1 1.8 0 3.1 1.4 3.1 3.1 0 1.7-1.3 3.1-3.1 3.1zm0-16.5c-1.7 0-3-1.3-3-3.1 0-1.7 1.3-3 3-3 1.8 0 3.1 1.3 3.1 3 0 1.8-1.3 3.1-3.1 3.1zm0-16.4c-1.7 0-3-1.4-3-3.1 0-1.7 1.3-3.1 3-3.1 1.8 0 3.1 1.4 3.1 3.1 0 1.7-1.3 3.1-3.1 3.1zm-16.4 65.8c-1.7 0-3.1-1.4-3.1-3.1 0-1.7 1.4-3.1 3.1-3.1 1.7 0 3.1 1.4 3.1 3.1 0 1.7-1.4 3.1-3.1 3.1zm0-16.5c-1.7 0-3.1-1.3-3.1-3 0-1.8 1.4-3.1 3.1-3.1 1.7 0 3.1 1.3 3.1 3.1 0 1.7-1.4 3-3.1 3zm0-16.4c-1.7 0-3.1-1.4-3.1-3.1 0-1.7 1.4-3.1 3.1-3.1 1.7 0 3.1 1.4 3.1 3.1 0 1.7-1.4 3.1-3.1 3.1zm0-16.5c-1.7 0-3.1-1.3-3.1-3.1 0-1.7 1.4-3 3.1-3 1.7 0 3.1 1.3 3.1 3 0 1.8-1.4 3.1-3.1 3.1zm0-16.4c-1.7 0-3.1-1.4-3.1-3.1 0-1.7 1.4-3.1 3.1-3.1 1.7 0 3.1 1.4 3.1 3.1 0 1.7-1.4 3.1-3.1 3.1zm65.8 59.6c1.7 0 3.1 1.4 3.1 3.1 0 1.7-1.4 3.1-3.1 3.1-1.7 0-3.1-1.4-3.1-3.1 0-1.7 1.4-3.1 3.1-3.1z"/></svg>