<svg version="1.2" xmlns="http://www.w3.org/2000/svg" viewBox="0 0 24 24" width="24" height="24"><style>.a{fill:#fff}</style><path fill-rule="evenodd" class="a" d="m3.2 7.6h4.3v-4.4c0-0.9 0.4-1.7 1-2.2 0.5-0.6 1.3-1 2.2-1h2.2c0.9 0 1.7 0.4 2.3 1 0.5 0.5 0.9 1.3 0.9 2.2v4.4h4.4c0.8 0 1.6 0.4 2.2 1 0.6 0.6 0.9 1.4 0.9 2.3v2.2c0 0.9-0.3 1.7-0.9 2.3-0.6 0.6-1.4 1-2.2 1h-4.4v4.4c0 0.9-0.4 1.7-0.9 2.2-0.6 0.6-1.4 1-2.3 1h-2.2c-0.9 0-1.7-0.4-2.2-1-0.6-0.5-1-1.3-1-2.2v-4.4h-4.3c-0.9 0-1.7-0.4-2.3-1-0.5-0.6-0.9-1.4-0.9-2.3v-2.2c0-0.9 0.4-1.7 0.9-2.3 0.6-0.6 1.4-1 2.3-1zm4.9 1.2h-4.9c-0.6 0-1.1 0.2-1.5 0.6-0.3 0.4-0.5 0.9-0.5 1.5v2.2c0 0.6 0.2 1.1 0.5 1.5 0.4 0.4 0.9 0.6 1.5 0.6h4.9c0.3 0 0.6 0.3 0.6 0.6v5c0 0.5 0.2 1.1 0.6 1.4 0.3 0.4 0.8 0.6 1.4 0.6h2.2c0.6 0 1.1-0.2 1.5-0.6 0.3-0.3 0.6-0.9 0.6-1.4v-5c0-0.3 0.2-0.6 0.5-0.6h5c0.5 0 1-0.2 1.4-0.6 0.3-0.4 0.6-0.9 0.6-1.5v-2.2c0-0.6-0.3-1.1-0.6-1.5-0.4-0.4-0.9-0.6-1.4-0.6h-5c-0.3 0-0.5-0.2-0.5-0.6v-5c0-0.5-0.3-1-0.6-1.4-0.4-0.4-0.9-0.6-1.5-0.6h-2.2c-0.6 0-1.1 0.2-1.4 0.6-0.4 0.4-0.6 0.9-0.6 1.4v5c0 0.4-0.3 0.6-0.6 0.6z"/></svg>